<svg height="512pt" viewBox="-10 0 512 512.001" width="512pt" xmlns="http://www.w3.org/2000/svg"><path d="m382.910156 102.675781c-19.566406-61.058593-76.359375-102.675781-140.632812-102.675781-73.710938 0-134.757813 53.976562-145.816406 124.53125-52.414063-2.507812-96.460938 39.527344-96.460938 92.015625 0 50.792969 41.324219 92.117187 92.117188 92.117187h309.269531c.691406 0 1.382812-.046874 2.066406-.140624 50.691406-6.984376 88.917969-51.246094 88.917969-102.953126 0-59.230468-50.085938-106.546874-109.460938-102.894531zm17.386719 175.675781h-308.179687c-34.078126 0-61.804688-27.726562-61.804688-61.804687 0-39.578125 37.027344-69.402344 76.140625-60.117187 9.28125 2.203124 18.222656-4.609376 18.640625-14.078126 2.773438-62.824218 54.246094-112.039062 117.183594-112.039062 54.8125 0 103.019531 38.816406 114.628906 92.296875 1.757812 8.097656 9.703125 13.285156 17.820312 11.636719 45.355469-9.1875 87.332032 25.628906 87.332032 71.324218 0 36.308594-26.480469 67.421876-61.761719 72.78125zm0 0"/><path d="m385.214844 317.261719-13.746094 8.332031c-10.078125 6.046875-5.914062 22.457031 4.984375 22.457031v44.742188c0 14.03125 27.535156 14.320312 27.535156 0v-66.335938c0-9.179687-12.390625-13.257812-18.773437-9.195312zm0 0"/><path d="m296.390625 315.925781c-19.527344 0-31.183594 11.308594-31.183594 30.246094v27.640625c0 18.941406 11.65625 30.246094 31.183594 30.246094 19.886719 0 31.289063-11.023438 31.289063-30.246094v-27.640625c0-19.222656-11.402344-30.246094-31.289063-30.246094zm3.753906 30.246094v27.640625c0 4.128906-1.105469 4.796875-3.753906 4.796875-2.480469 0-3.648437-.472656-3.648437-4.796875v-27.640625c0-4.324219 1.167968-4.796875 3.648437-4.796875 2.648437 0 3.753906.667969 3.753906 4.796875zm0 0"/><path d="m227.167969 392.792969v-66.335938c0-9.179687-12.382813-13.261719-18.773438-9.195312l-13.746093 8.332031c-10.074219 6.042969-5.914063 22.457031 4.984374 22.457031v44.742188c0 14.03125 27.535157 14.320312 27.535157 0zm0 0"/><path d="m119.570312 315.925781c-19.527343 0-31.183593 11.308594-31.183593 30.246094v27.640625c0 18.941406 11.65625 30.246094 31.183593 30.246094 19.886719 0 31.289063-11.023438 31.289063-30.246094v-27.640625c0-19.222656-11.402344-30.246094-31.289063-30.246094zm3.753907 30.246094v27.640625c0 4.128906-1.105469 4.796875-3.753907 4.796875-2.480468 0-3.648437-.472656-3.648437-4.796875v-27.640625c0-4.324219 1.167969-4.796875 3.648437-4.796875 2.648438 0 3.753907.667969 3.753907 4.796875zm0 0"/><path d="m385.214844 425.203125-13.746094 8.332031c-10.078125 6.046875-5.914062 22.457032 4.984375 22.457032v44.742187c0 14.03125 27.535156 14.320313 27.535156 0v-66.332031c0-9.179688-12.390625-13.261719-18.773437-9.199219zm0 0"/><path d="m296.390625 423.867188c-19.527344 0-31.183594 11.308593-31.183594 30.246093v27.640625c0 18.941406 11.65625 30.246094 31.183594 30.246094 19.886719 0 31.289063-11.023438 31.289063-30.246094v-27.640625c0-19.222656-11.402344-30.246093-31.289063-30.246093zm3.753906 30.246093v27.640625c0 4.128906-1.105469 4.796875-3.753906 4.796875-2.480469 0-3.648437-.472656-3.648437-4.796875v-27.640625c0-4.324219 1.167968-4.796875 3.648437-4.796875 2.648437 0 3.753906.667969 3.753906 4.796875zm0 0"/><path d="m119.984375 425.203125-13.746094 8.332031c-5.40625 3.246094-6.535156 9.351563-5.257812 13.96875 2.453125 8.855469 10.140625 8.449219 10.242187 8.488282v44.742187c0 6.988281 6.945313 10.640625 13.804688 10.640625 6.613281 0 13.730468-3.328125 13.730468-10.640625v-66.332031c0-9.09375-12.292968-13.324219-18.773437-9.199219zm0 0"/><path d="m207.980469 423.867188c-19.527344 0-31.183594 11.308593-31.183594 30.246093v27.640625c0 18.941406 11.65625 30.246094 31.183594 30.246094 19.886719 0 31.289062-11.023438 31.289062-30.246094v-27.640625c0-19.222656-11.40625-30.246093-31.289062-30.246093zm3.753906 30.246093v27.640625c0 4.128906-1.105469 4.796875-3.753906 4.796875-2.480469 0-3.648438-.472656-3.648438-4.796875v-27.640625c0-4.324219 1.167969-4.796875 3.648438-4.796875 2.648437 0 3.753906.667969 3.753906 4.796875zm0 0"/></svg>